<?xml version="1.0" encoding="iso-8859-1"?>
<!-- Generator: Adobe Illustrator 19.0.0, SVG Export Plug-In . SVG Version: 6.00 Build 0)  -->
<svg version="1.1" id="Layer_1" xmlns="http://www.w3.org/2000/svg" xmlns:xlink="http://www.w3.org/1999/xlink" x="0px" y="0px"
	 viewBox="0 0 512 512" style="enable-background:new 0 0 512 512;" xml:space="preserve">
<path style="fill:#EBE4DD;" d="M327.442,59.535c-25.33,0-49.468,5.107-71.442,14.342c-21.974-9.235-46.111-14.342-71.442-14.342
	C82.63,59.535,0,142.165,0,244.093s82.63,184.558,184.558,184.558c35.721,0,59.535,23.814,71.84,23.814
	c11.509,0,35.323-23.814,71.044-23.814C429.37,428.651,512,346.022,512,244.093S429.37,59.535,327.442,59.535z"/>
<path style="fill:#D8CCBC;" d="M327.442,59.535c-25.33,0-49.468,5.107-71.442,14.342v378.564c0.131,0.006,0.269,0.024,0.398,0.024
	c11.509,0,35.323-23.814,71.044-23.814C429.37,428.651,512,346.022,512,244.093S429.37,59.535,327.442,59.535z"/>
<path style="fill:#BFA993;" d="M172.651,238.14c0-64.37-36.484-120.218-89.9-147.993C32.887,123.188,0,179.795,0,244.093
	c0,59.88,28.524,113.09,72.719,146.808C131.541,365.156,172.651,306.458,172.651,238.14z"/>
<path style="fill:#B29A7E;" d="M512,244.093c0-64.298-32.887-120.905-82.75-153.946c-53.418,27.777-89.901,83.623-89.901,147.993
	c0,68.315,41.092,127.03,99.909,152.778C483.465,357.201,512,303.984,512,244.093z"/>
<g>
	<path style="fill:#58575D;" d="M294.102,256c-6.258,18.99-23.028,39.928-38.102,40.247c-15.074-0.319-31.844-21.256-38.102-40.247
		c-2.891-9.703,4.582-17.733,16.67-17.86c14.288,0,28.577,0,42.865,0C289.522,238.267,296.993,246.296,294.102,256z"/>
	<path style="fill:#58575D;" d="M83.349,267.907h-0.002c-13.13,0-23.812-10.683-23.812-23.814
		c0.005-13.133,10.688-23.814,23.814-23.814c13.131,0,23.814,10.683,23.814,23.814S96.48,267.907,83.349,267.907z"/>
</g>
<path style="fill:#454449;" d="M428.651,267.907h-0.002c-13.13,0-23.812-10.683-23.812-23.814
	c0.005-13.133,10.688-23.814,23.814-23.814c13.131,0,23.814,10.683,23.814,23.814S441.782,267.907,428.651,267.907z"/>
<rect x="196.465" y="327.442" style="fill:#A58868;" width="119.07" height="35.721"/>
<rect x="256" y="327.442" style="fill:#947859;" width="59.535" height="35.721"/>
<path style="fill:#454449;" d="M277.433,238.14c-7.144,0-14.288,0-21.433,0v58.107c15.074-0.319,31.844-21.256,38.102-40.247
	C296.993,246.296,289.522,238.267,277.433,238.14z"/>
<g>
</g>
<g>
</g>
<g>
</g>
<g>
</g>
<g>
</g>
<g>
</g>
<g>
</g>
<g>
</g>
<g>
</g>
<g>
</g>
<g>
</g>
<g>
</g>
<g>
</g>
<g>
</g>
<g>
</g>
</svg>
